PathFileType	4	(X/Y/Z)	E:\Qualisys_Data\Carbon_Farble_Plate\Data\Amateur_Runner\S2\T3\S2T3V12_c3d.trc
DataRate	CameraRate	NumFrames	NumMarkers	Units	OrigDataRate	OrigDataStartFrame	OrigNumFrames
200.000000	200.000000	4	39	mm	200.000000	39	316
Frame#	Time	LSHO			RSHO			LICST			RICST			LASIS			LHEEL			RASIS			LTROC			RTROC			SACR			LTH1			LSK4			LTH2			LTH3			RHM5			LSK2			LTH4			RTH1			LTOE			RTH2			RTH3			RTH4			LLEP			RLEP			LSK1			LSK3			RSK1			LHM5			RSK2			LFT1			RSK3			RSK4			LLME			RLME			RTOE			RHEEL			RFT1			RFT2			LFT2			
		X1	Y1	Z1	X2	Y2	Z2	X3	Y3	Z3	X4	Y4	Z4	X5	Y5	Z5	X6	Y6	Z6	X7	Y7	Z7	X8	Y8	Z8	X9	Y9	Z9	X10	Y10	Z10	X11	Y11	Z11	X12	Y12	Z12	X13	Y13	Z13	X14	Y14	Z14	X15	Y15	Z15	X16	Y16	Z16	X17	Y17	Z17	X18	Y18	Z18	X19	Y19	Z19	X20	Y20	Z20	X21	Y21	Z21	X22	Y22	Z22	X23	Y23	Z23	X24	Y24	Z24	X25	Y25	Z25	X26	Y26	Z26	X27	Y27	Z27	X28	Y28	Z28	X29	Y29	Z29	X30	Y30	Z30	X31	Y31	Z31	X32	Y32	Z32	X33	Y33	Z33	X34	Y34	Z34	X35	Y35	Z35	X36	Y36	Z36	X37	Y37	Z37	X38	Y38	Z38	X39	Y39	Z39	

40	0.195	-1483.121948242188	1439.010375976562	-525.2491455078125	-1481.130737304688	1400.0234375	-203.9347991943359	-1556.462646484375	972.1092529296876	-529.4840087890625	-1551.558837890625	962.1084594726562	-221.9069519042969	-1496.66015625	926.6583251953124	-513.3959350585938	-1842.536499023438	339.4897766113281	-437.1005249023438	-1487.87841796875	922.0446166992188	-249.126220703125	-1619.745239257812	841.8091430664062	-524.1513061523438	-1632.466674804688	857.514404296875	-227.5320739746094	-1643.380859375	1009.007934570312	-376.7130737304688	-1438.154296875	627.94775390625	-549.10693359375	-1672.833740234375	411.0241088867188	-523.9805297851562	-1518.942016601562	609.4107666015625	-549.8796997070312	-1416.018798828125	527.212158203125	-533.3505859375	-1630.768676757812	72.14908599853516	-268.9722900390625	-1584.985961914062	455.9185485839844	-541.5374145507812	-1499.866088867188	511.6130981445312	-532.2265625	-1490.037231445312	595.1952514648438	-227.4360046386719	-1741.318725585938	119.3926696777344	-496.0461730957031	-1567.8515625	595.0276489257812	-227.9676818847656	-1489.89697265625	497.1711730957031	-257.0349426269531	-1570.596313476562	500.3735046386719	-250.1784057617188	-1458.595092773438	475.7523193359375	-537.18798828125	-1538.310546875	464.4257202148438	-248.7333984375	-1547.455688476562	382.6134033203125	-537.6815795898438	-1637.900390625	339.606201171875	-528.1340942382812	-1552.756713867188	339.1239013671875	-258.7158203125	-1792.376342773438	171.8391723632812	-542.5731201171875	-1621.388671875	378.0283203125	-241.4408264160156	-1857.972778320312	313.9808654785156	-407.7246704101562	-1604.316284179688	252.4850158691406	-274.0730895996094	-1671.54833984375	292.6982421875	-257.5631713867188	-1809.58251953125	297.929931640625	-499.418212890625	-1734.407104492188	121.7520904541016	-298.9742431640625	-1564.227783203125	69.3153076171875	-323.7639465332031	-1806.42919921875	112.9952850341797	-358.0917053222656	-1797.4814453125	81.4420166015625	-382.625	-1813.216796875	89.82051086425781	-333.80908203125	-1872.496459960938	325.4988708496094	-459.2966003417969
41	0.2	-1470.114135742188	1442.433837890625	-525.6102294921875	-1463.74169921875	1403.06884765625	-204.6936187744141	-1542.072021484375	976.1211547851562	-530.307861328125	-1535.5068359375	964.87109375	-222.791748046875	-1481.210693359375	930.0936279296876	-512.8146362304688	-1818.94921875	331.8911437988281	-436.9801940917969	-1472.513671875	924.2662353515624	-248.7953186035156	-1604.212280273438	845.367919921875	-525.2545776367188	-1617.156982421875	860.519775390625	-227.7459259033203	-1628.03564453125	1012.516418457031	-376.2500915527344	-1419.269165039062	633.2064208984375	-548.7496948242188	-1651.225830078125	409.6493530273438	-523.8619995117188	-1500.536010742188	613.9453125	-550.0452270507812	-1395.655151367188	533.135009765625	-532.3372802734375	-1629.897827148438	71.99534606933594	-269.2523193359375	-1564.434448242188	456.887939453125	-540.8800659179688	-1479.643798828125	516.0860595703125	-531.9637451171875	-1481.940551757812	596.6109008789062	-227.5690460205078	-1710.564575195312	114.9093933105469	-496.470947265625	-1559.244506835938	598.3947143554688	-228.3856201171875	-1483.037353515625	499.1827087402344	-257.0887756347656	-1564.117309570312	503.7723083496094	-250.6280975341797	-1438.475463867188	480.7533569335938	-536.1417236328125	-1533.533935546875	466.8925170898438	-249.1429748535156	-1525.054443359375	384.7120971679688	-537.34521484375	-1614.314697265625	339.3593444824219	-527.7059326171875	-1549.046142578125	341.6324768066406	-258.99560546875	-1763.151000976562	166.3756256103516	-542.8903198242188	-1618.238037109375	381.1860961914062	-241.2332000732422	-1830.426025390625	303.181396484375	-405.9818115234375	-1602.4072265625	254.8059844970703	-273.9613952636719	-1668.990356445312	296.4238586425781	-258.0494079589844	-1784.481201171875	291.7853393554688	-499.11181640625	-1732.544677734375	125.0753707885742	-298.7826232910156	-1563.416625976562	69.18439483642578	-324.1743469238281	-1805.314331054688	117.1450271606445	-357.7125244140625	-1796.557983398438	84.84614562988281	-382.2470703125	-1811.666259765625	93.75804138183594	-333.8993225097656	-1848.59619140625	315.8816528320312	-458.4045715332031
42	0.205	-1458.691284179688	1446.420654296875	-526.3998413085938	-1446.269287109375	1406.736938476562	-205.3091430664062	-1526.495361328125	980.22802734375	-529.6610717773438	-1520.082275390625	968.2952880859376	-223.5055389404297	-1466.308349609375	934.0234985351562	-512.5729370117188	-1795.20947265625	324.2700500488281	-437.1120910644531	-1455.991333007812	927.2920532226562	-248.6207427978516	-1587.955322265625	849.6611938476562	-526.2936401367188	-1602.362060546875	863.7861938476562	-227.8653259277344	-1612.597900390625	1015.93701171875	-375.0651550292969	-1400.596069335938	638.8173217773438	-548.4400024414062	-1629.549072265625	408.0199584960938	-523.48974609375	-1481.633056640625	618.73876953125	-550.0491333007812	-1376.280639648438	539.5328979492188	-532.071533203125	-1629.352294921875	72.35363006591797	-269.2486877441406	-1544.289794921875	457.7960815429688	-540.0426025390625	-1460.018310546875	521.1631469726562	-531.699462890625	-1473.398193359375	599.4664306640625	-227.9811401367188	-1678.062622070312	112.0820922851562	-496.1991577148438	-1550.485717773438	602.0936889648438	-228.9229431152344	-1476.583251953125	501.7508544921875	-257.033447265625	-1557.212890625	507.9130554199219	-251.1660461425781	-1419.080688476562	486.2652282714844	-536.3988647460938	-1527.341186523438	469.5900268554688	-249.4479675292969	-1504.674194335938	389.1954040527344	-537.7780151367188	-1590.586669921875	338.9184875488281	-527.1680908203125	-1545.976806640625	344.4190368652344	-258.7652282714844	-1732.75634765625	161.4236907958984	-541.7308959960938	-1614.263427734375	384.7761840820312	-241.7298889160156	-1812.728393554688	299.3204345703125	-405.2301330566406	-1598.295776367188	258.4713134765625	-274.0404968261719	-1665.201171875	299.9974060058594	-257.936767578125	-1758.989868164062	285.4999389648438	-498.8043823242188	-1729.658203125	128.5864868164062	-298.2084350585938	-1562.793212890625	68.60526275634766	-322.9774475097656	-1802.47802734375	121.8293151855469	-356.9248352050781	-1794.8349609375	89.65042114257812	-381.6713562011719	-1809.566040039062	98.67762756347656	-333.1315307617188	-1823.678344726562	307.2116088867188	-458.3076171875
43	0.21	-1445.711669921875	1450.448852539062	-525.5157470703125	-1429.277465820312	1410.680053710938	-206.7641296386719	-1510.217041015625	984.0240478515624	-529.1383666992188	-1502.525390625	971.3643798828124	-222.8704833984375	-1450.598022460938	938.1219482421876	-512.095458984375	-1772.017333984375	316.48193359375	-436.6784973144531	-1440.533203125	929.648681640625	-248.9643707275391	-1572.0751953125	854.0149536132812	-527.531494140625	-1587.40087890625	867.9318237304688	-228.0755615234375	-1596.719604492188	1019.756408691406	-374.6117248535156	-1382.548583984375	644.7298583984375	-548.5178833007812	-1607.93408203125	406.1939697265625	-523.3929443359375	-1463.216430664062	623.253662109375	-549.9439697265625	-1357.26220703125	545.642578125	-530.85693359375	-1627.648559570312	73.1064453125	-268.503173828125	-1524.710693359375	458.6694030761719	-539.815185546875	-1440.668701171875	525.970947265625	-531.56005859375	-1465.13525390625	602.6301879882812	-228.1504669189453	-1647.056762695312	109.3301010131836	-496.4798889160156	-1541.927856445312	606.511474609375	-229.2496337890625	-1470.4013671875	504.1796264648438	-256.6036071777344	-1550.301635742188	512.0791015625	-251.1140441894531	-1398.65625	491.3061828613281	-535.109375	-1522.560424804688	473.4236755371094	-249.9559783935547	-1482.89990234375	391.1224975585938	-537.3363647460938	-1567.275146484375	338.6005554199219	-526.8463134765625	-1542.115112304688	347.6836853027344	-258.4490966796875	-1702.437622070312	156.387451171875	-542.156005859375	-1610.515258789062	388.455810546875	-241.8225555419922	-1784.911376953125	290.058837890625	-407.6224365234375	-1595.925048828125	261.7584228515625	-273.4494323730469	-1661.8662109375	304.0785217285156	-257.6786193847656	-1733.991821289062	279.4265441894531	-498.8777160644531	-1727.151733398438	132.3375244140625	-297.1535949707031	-1561.5126953125	68.90758514404297	-323.2315063476562	-1799.629028320312	127.8030624389648	-356.2769775390625	-1792.6689453125	96.10997009277344	-381.3699340820312	-1807.70263671875	104.2544479370117	-332.9560241699219	-1799.15234375	297.7337341308594	-457.8380737304688
